<!-- Generated by IcoMoon.io -->
<svg version="1.1" xmlns="http://www.w3.org/2000/svg" width="30" height="32" viewBox="0 0 30 32">
<title>antenna</title>
<path fill="#212121" d="M28.44 19.833l-7.578-7.633 0.841-4.143c0.202 0.081 0.436 0.129 0.68 0.131h0.006c0.007 0 0.015 0 0.023 0 1.070 0 1.938-0.868 1.938-1.938s-0.868-1.938-1.938-1.938c-1.070 0-1.938 0.868-1.938 1.938 0 0.233 0.041 0.456 0.116 0.663l-0.004-0.013-4.452 0.544-7.261-7.299c-0.086-0.088-0.206-0.143-0.338-0.144h-0c-0.126 0.001-0.246 0.051-0.335 0.14l-1.357 1.35c-0.087 0.087-0.14 0.206-0.14 0.338s0.054 0.252 0.14 0.339v0l0.73 0.741c-1.026 1.851-1.63 4.059-1.63 6.407 0 3.685 1.486 7.022 3.892 9.446l-0.001-0.001c0.039 0.037 0.083 0.066 0.131 0.087-0.029 0.147-0.046 0.317-0.047 0.49v5.554h-5.744c-1.321 0.001-2.392 1.072-2.394 2.393v0.957c0 0.265 0.215 0.479 0.479 0.479h22.019c0.264 0 0.478-0.214 0.478-0.479v-0.957c-0.002-1.321-1.072-2.392-2.393-2.393h-5.744v-2.461c0.9 0.189 1.817 0.285 2.736 0.287 2.315-0.003 4.492-0.595 6.388-1.635l-0.069 0.035 0.734 0.738c0.089 0.091 0.21 0.142 0.338 0.144 0.126-0.001 0.246-0.051 0.335-0.14l1.357-1.35c0.087-0.087 0.14-0.206 0.14-0.338s-0.054-0.252-0.14-0.338v0zM21.715 5.594c0.173-0.172 0.412-0.279 0.675-0.279 0.529 0 0.957 0.429 0.957 0.957s-0.429 0.957-0.957 0.957c-0 0-0 0-0 0h-0.003c-0.526-0.003-0.952-0.43-0.952-0.957 0-0.265 0.108-0.505 0.282-0.679l0-0h-0.002zM20.588 8.739l-0.537 2.644-1.055-1.061 1.592-1.582zM20.044 7.93l-1.723 1.713-1.333-1.34 3.057-0.373zM22.365 25.848c0.793 0 1.436 0.643 1.436 1.436v0 0.479h-21.061v-0.479c0-0.793 0.643-1.436 1.436-1.436v0h18.189zM15.663 23.933v0.958h-4.787v-0.958h4.787zM10.877 22.976v-3.638c0-1.161 1.074-2.106 2.393-2.106s2.394 0.945 2.394 2.106v3.638h-4.787zM16.621 21.454v-2.116c0-1.689-1.503-3.063-3.351-3.063-0.016-0-0.034-0-0.052-0-1.214 0-2.28 0.634-2.884 1.589l-0.008 0.014c-2.118-2.227-3.421-5.247-3.421-8.571 0-2.077 0.509-4.035 1.408-5.757l-0.033 0.069 16.695 16.791c-1.636 0.85-3.572 1.348-5.624 1.348-0.968 0-1.91-0.111-2.815-0.321l0.084 0.016zM26.753 20.84l-18.898-19.010 0.677-0.675 7.122 7.162c0.003 0 0.005 0.006 0.009 0.009l11.77 11.839-0.679 0.675z"></path>
<path fill="#2196f3" d="M13.274 18.189h-0.004c-0.001 0-0.001 0-0.002 0-0.793 0-1.436 0.643-1.436 1.436s0.642 1.435 1.434 1.436h0.004c0.001 0 0.001 0 0.002 0 0.793 0 1.436-0.643 1.436-1.436s-0.642-1.435-1.434-1.436h-0zM13.609 19.965c-0.087 0.086-0.206 0.14-0.338 0.14-0.264 0-0.479-0.214-0.479-0.479s0.214-0.478 0.477-0.479h0c0.263 0.001 0.476 0.215 0.476 0.478 0 0.133-0.054 0.253-0.141 0.339l-0 0h0.004z"></path>
</svg>
